<svg width="24" height="24" viewBox="0 0 24 24" fill="none" xmlns="http://www.w3.org/2000/svg">
<path fill-rule="evenodd" clip-rule="evenodd" d="M7 2C7.55228 2 8 2.44772 8 3V4H14V3C14 2.44772 14.4477 2 15 2C15.5523 2 16 2.44772 16 3V4H17C17.7956 4 18.5587 4.31607 19.1213 4.87868C19.6839 5.44129 20 6.20435 20 7V10C20 10.5523 19.5523 11 19 11C18.4477 11 18 10.5523 18 10V7C18 6.73478 17.8946 6.48043 17.7071 6.29289C17.5196 6.10536 17.2652 6 17 6H16V7C16 7.55228 15.5523 8 15 8C14.4477 8 14 7.55228 14 7V6H8V7C8 7.55228 7.55228 8 7 8C6.44772 8 6 7.55228 6 7V6H5C4.73478 6 4.48043 6.10536 4.29289 6.29289C4.10536 6.48043 4 6.73478 4 7V10H13C13.5523 10 14 10.4477 14 11C14 11.5523 13.5523 12 13 12H4V19C4 19.2652 4.10536 19.5196 4.29289 19.7071C4.48043 19.8946 4.73478 20 5 20H9.5C10.0523 20 10.5 20.4477 10.5 21C10.5 21.5523 10.0523 22 9.5 22H5C4.20435 22 3.44129 21.6839 2.87868 21.1213C2.31607 20.5587 2 19.7957 2 19V7C2 6.20435 2.31607 5.44129 2.87868 4.87868C3.44129 4.31607 4.20435 4 5 4H6V3C6 2.44772 6.44772 2 7 2Z" fill="#3B3B3B"/>
<path fill-rule="evenodd" clip-rule="evenodd" d="M13.4645 14.4645C14.4021 13.5268 15.6739 13 17 13C18.3261 13 19.5979 13.5268 20.5355 14.4645C21.4732 15.4021 22 16.6739 22 18C22 19.3261 21.4732 20.5979 20.5355 21.5355C19.5979 22.4732 18.3261 23 17 23C15.6739 23 14.4021 22.4732 13.4645 21.5355C12.5268 20.5979 12 19.3261 12 18C12 16.6739 12.5268 15.4021 13.4645 14.4645ZM17 15C16.2044 15 15.4413 15.3161 14.8787 15.8787C14.3161 16.4413 14 17.2044 14 18C14 18.7956 14.3161 19.5587 14.8787 20.1213C15.4413 20.6839 16.2044 21 17 21C17.7956 21 18.5587 20.6839 19.1213 20.1213C19.6839 19.5587 20 18.7956 20 18C20 17.2044 19.6839 16.4413 19.1213 15.8787C18.5587 15.3161 17.7956 15 17 15Z" fill="#3B3B3B"/>
<path fill-rule="evenodd" clip-rule="evenodd" d="M17 15.5C17.5523 15.5 18 15.9477 18 16.5V17.5858L18.2071 17.7929C18.5976 18.1834 18.5976 18.8166 18.2071 19.2071C17.8166 19.5976 17.1834 19.5976 16.7929 19.2071L16.2929 18.7071C16.1054 18.5196 16 18.2652 16 18V16.5C16 15.9477 16.4477 15.5 17 15.5Z" fill="#3B3B3B"/>
</svg>
