<svg width="30" height="30" viewBox="0 0 30 30" fill="none" xmlns="http://www.w3.org/2000/svg">
<path d="M10.625 18.75H19.375M10.625 22.5H15M23.75 2.5H6.25C5.91848 2.5 5.60054 2.6317 5.36612 2.86612C5.1317 3.10054 5 3.41848 5 3.75V26.25C5 26.5815 5.1317 26.8995 5.36612 27.1339C5.60054 27.3683 5.91848 27.5 6.25 27.5H23.75C24.0815 27.5 24.3995 27.3683 24.6339 27.1339C24.8683 26.8995 25 26.5815 25 26.25V3.75C25 3.41848 24.8683 3.10054 24.6339 2.86612C24.3995 2.6317 24.0815 2.5 23.75 2.5Z" stroke="#001437" stroke-width="2" stroke-linecap="round" stroke-linejoin="round"/>
<path d="M18.75 8.125L13.75 13.125L11.25 10.625" stroke="#001437" stroke-width="2" stroke-linecap="round" stroke-linejoin="round"/>
</svg>
