<svg width="24" height="24" viewBox="0 0 24 24" fill="none" xmlns="http://www.w3.org/2000/svg">
<path fill-rule="evenodd" clip-rule="evenodd" d="M11.2929 2.29289C11.6834 1.90237 12.3166 1.90237 12.7071 2.29289L21.7071 11.2929C21.9931 11.5789 22.0786 12.009 21.9238 12.3827C21.7691 12.7563 21.4044 13 21 13H20V18.9999C20 19.7956 19.6839 20.5587 19.1213 21.1213C18.5587 21.6839 17.7956 21.9999 17 21.9999H7.00001C6.20437 21.9999 5.44131 21.6839 4.8787 21.1213C4.31609 20.5587 4.00002 19.7956 4.00002 18.9999V13H3.00003C2.59557 13 2.23093 12.7563 2.07615 12.3827C1.92137 12.009 2.00692 11.5789 2.29292 11.2929L11.2929 2.29289ZM5.35093 11.0633C5.73012 11.2054 6.00002 11.5712 6.00002 12V18.9999C6.00002 19.2652 6.10537 19.5195 6.29291 19.7071C6.48045 19.8946 6.7348 19.9999 7.00001 19.9999H17C17.2652 19.9999 17.5196 19.8946 17.7071 19.7071C17.8946 19.5195 18 19.2652 18 18.9999V12C18 11.5712 18.2699 11.2054 18.6491 11.0633L12 4.41421L5.35093 11.0633Z" fill="#3B3B3B"/>
<path fill-rule="evenodd" clip-rule="evenodd" d="M11 14C10.7348 14 10.4804 14.1054 10.2929 14.2929C10.1054 14.4804 9.99999 14.7348 9.99999 15V21C9.99999 21.5523 9.55228 22 9 22C8.44771 22 8 21.5523 8 21V15C8 14.2043 8.31607 13.4413 8.87868 12.8787C9.44128 12.3161 10.2043 12 11 12H13C13.7956 12 14.5587 12.3161 15.1213 12.8787C15.6839 13.4413 16 14.2043 16 15V21C16 21.5523 15.5523 22 15 22C14.4477 22 14 21.5523 14 21V15C14 14.7348 13.8946 14.4804 13.7071 14.2929C13.5196 14.1054 13.2652 14 13 14H11Z" fill="#3B3B3B"/>
</svg>
