<svg width="30" height="30" viewBox="0 0 30 30" fill="none" xmlns="http://www.w3.org/2000/svg">
<path d="M22.5 1.25C19.05 1.25 16.25 4.05 16.25 7.5C16.25 10.95 19.05 13.75 22.5 13.75C25.95 13.75 28.75 10.95 28.75 7.5C28.75 4.05 25.95 1.25 22.5 1.25ZM23.125 8.75H21.875V3.75H23.125V8.75ZM23.125 10V11.25H21.875V10H23.125ZM7.5 16.875C7.5 15.8375 8.3375 15 9.375 15C10.4125 15 11.25 15.8375 11.25 16.875C11.25 17.9125 10.4125 18.75 9.375 18.75C8.3375 18.75 7.5 17.9125 7.5 16.875ZM23.75 16.1625C24.6174 16.0447 25.461 15.7916 26.25 15.4125V23.75C26.25 24.4375 25.6875 25 25 25H23.75C23.0625 25 22.5 24.4375 22.5 23.75V22.5H7.5V23.75C7.5 24.4375 6.9375 25 6.25 25H5C4.3125 25 3.75 24.4375 3.75 23.75V13.75L6.35 6.2625C6.6125 5.525 7.3 5 8.125 5H14.1125C13.875 5.7875 13.75 6.6375 13.75 7.5H8.5625L7.2625 11.25H14.5875C15.0375 12.1875 15.6375 13.0375 16.375 13.75H6.25V20H23.75V16.1625ZM22.3875 16.25C21.3026 16.2383 20.2297 16.022 19.225 15.6125C18.9375 15.95 18.75 16.3875 18.75 16.875C18.75 17.9125 19.5875 18.75 20.625 18.75C21.6625 18.75 22.5 17.9125 22.5 16.875C22.5 16.65 22.4625 16.45 22.3875 16.25Z" fill="#001437"/>
</svg>
