<svg width="30" height="30" viewBox="0 0 30 30" fill="none" xmlns="http://www.w3.org/2000/svg">
<path fill-rule="evenodd" clip-rule="evenodd" d="M13.75 17.5C13.4185 17.5 13.1005 17.6317 12.8661 17.8661C12.6317 18.1005 12.5 18.4185 12.5 18.75V26.25C12.5 26.9404 11.9404 27.5 11.25 27.5C10.5596 27.5 10 26.9404 10 26.25V18.75C10 17.7554 10.3951 16.8016 11.0984 16.0984C11.8016 15.3951 12.7554 15 13.75 15H16.25C17.2446 15 18.1984 15.3951 18.9016 16.0984C19.6049 16.8016 20 17.7554 20 18.75C20 19.4404 19.4404 20 18.75 20C18.0596 20 17.5 19.4404 17.5 18.75C17.5 18.4185 17.3683 18.1005 17.1339 17.8661C16.8995 17.6317 16.5815 17.5 16.25 17.5H13.75Z" fill="#001437"/>
<path fill-rule="evenodd" clip-rule="evenodd" d="M14.1162 2.86612C14.6043 2.37796 15.3958 2.37796 15.8839 2.86612L27.1339 14.1161C27.4914 14.4736 27.5984 15.0113 27.4049 15.4784C27.2114 15.9454 26.7556 16.25 26.25 16.25H25V16.86C25 17.5504 24.4404 18.11 23.75 18.11C23.0597 18.11 22.5 17.5504 22.5 16.86V15C22.5 14.464 22.8374 14.0068 23.3114 13.8291L15 5.51777L6.68868 13.8291C7.16266 14.0068 7.50004 14.464 7.50004 15V23.75C7.50004 24.0815 7.63173 24.3995 7.86615 24.6339C8.10057 24.8683 8.41852 25 8.75004 25H14.4063C15.0966 25 15.6563 25.5596 15.6563 26.25C15.6563 26.9404 15.0966 27.5 14.4063 27.5H8.75004C7.75547 27.5 6.80165 27.1049 6.09839 26.4017C5.39512 25.6984 5.00004 24.7446 5.00004 23.75V16.25H3.75004C3.24446 16.25 2.78866 15.9454 2.59519 15.4784C2.40171 15.0113 2.50866 14.4736 2.86615 14.1161L14.1162 2.86612ZM27.1339 20.3661C27.6221 20.8543 27.6221 21.6457 27.1339 22.1339L22.1339 27.1339C21.6458 27.622 20.8543 27.622 20.3662 27.1339L17.8662 24.6339C17.378 24.1457 17.378 23.3543 17.8662 22.8661C18.3543 22.378 19.1458 22.378 19.6339 22.8661L21.25 24.4822L25.3662 20.3661C25.8543 19.878 26.6458 19.878 27.1339 20.3661Z" fill="#001437"/>
</svg>
