<svg width="20" height="20" viewBox="0 0 20 20" fill="none" xmlns="http://www.w3.org/2000/svg">
<path d="M9.5 12.4737C8.84524 12.4737 8.28869 12.2434 7.83036 11.7829C7.37202 11.3224 7.14286 10.7632 7.14286 10.1053V5.36842C7.14286 4.71053 7.37202 4.15132 7.83036 3.69079C8.28869 3.23026 8.84524 3 9.5 3C10.1548 3 10.7113 3.23026 11.1696 3.69079C11.628 4.15132 11.8571 4.71053 11.8571 5.36842V10.1053C11.8571 10.7632 11.628 11.3224 11.1696 11.7829C10.7113 12.2434 10.1548 12.4737 9.5 12.4737ZM8.71429 18V15.5724C7.35238 15.3882 6.22619 14.7763 5.33571 13.7368C4.44524 12.6974 4 11.4868 4 10.1053H5.57143C5.57143 11.1974 5.9546 12.1284 6.72093 12.8984C7.48726 13.6684 8.41362 14.0532 9.5 14.0526C10.5864 14.0521 11.513 13.6671 12.2799 12.8976C13.0467 12.1282 13.4296 11.1974 13.4286 10.1053H15C15 11.4868 14.5548 12.6974 13.6643 13.7368C12.7738 14.7763 11.6476 15.3882 10.2857 15.5724V18H8.71429Z" fill="#001437"/>
</svg>
