<svg width="20" height="20" viewBox="0 0 20 20" fill="none" xmlns="http://www.w3.org/2000/svg">
<path fill-rule="evenodd" clip-rule="evenodd" d="M9.85325 4C8.91817 4.0001 7.99673 4.22419 7.16604 4.65352C6.33536 5.08284 5.61962 5.7049 5.07873 6.46763C4.53785 7.23036 4.18755 8.11155 4.05718 9.03745C3.9268 9.96335 4.02014 10.907 4.32938 11.7894C4.63861 12.6718 5.15475 13.4673 5.83458 14.1093C6.51441 14.7513 7.33815 15.2211 8.23684 15.4794C9.13553 15.7377 10.083 15.777 11 15.5939C11.917 15.4108 12.7768 15.0108 13.5074 14.4272L15.8977 16.8174C16.0204 16.9359 16.1847 17.0015 16.3552 17C16.5258 16.9985 16.6889 16.9301 16.8095 16.8095C16.9301 16.6889 16.9985 16.5258 17 16.3553C17.0015 16.1847 16.9359 16.0204 16.8174 15.8978L14.4271 13.5075C15.1152 12.6463 15.5462 11.6083 15.6704 10.513C15.7946 9.41761 15.6069 8.30946 15.129 7.31606C14.6511 6.32266 13.9024 5.48439 12.969 4.89774C12.0357 4.31109 10.9557 3.9999 9.85325 4ZM5.95066 9.8536C5.95066 9.34113 6.0516 8.83367 6.24773 8.36021C6.44385 7.88675 6.73131 7.45656 7.0937 7.09418C7.45609 6.73181 7.88631 6.44436 8.35979 6.24825C8.83328 6.05214 9.34075 5.9512 9.85325 5.9512C10.3657 5.9512 10.8732 6.05214 11.3467 6.24825C11.8202 6.44436 12.2504 6.73181 12.6128 7.09418C12.9752 7.45656 13.2626 7.88675 13.4588 8.36021C13.6549 8.83367 13.7558 9.34113 13.7558 9.8536C13.7558 10.8886 13.3447 11.8812 12.6128 12.613C11.8809 13.3448 10.8883 13.756 9.85325 13.756C8.81822 13.756 7.82558 13.3448 7.0937 12.613C6.36182 11.8812 5.95066 10.8886 5.95066 9.8536Z" fill="#748290"/>
</svg>
